<?xml version="1.0" standalone="no"?>
<!DOCTYPE svg PUBLIC "-//W3C//DTD SVG 1.1//EN" "http://www.w3.org/Graphics/SVG/1.1/DTD/svg11.dtd">
<svg width="100%" height="100%" viewBox="0 0 800 800" version="1.1" xmlns="http://www.w3.org/2000/svg" xmlns:xlink="http://www.w3.org/1999/xlink" xml:space="preserve" style="fill-rule:evenodd;clip-rule:evenodd;stroke-linecap:round;stroke-linejoin:round;stroke-miterlimit:1.41421;">
    <g transform="matrix(2.56538,0,0,2.20338,275.382,-1164.52)">
        <path d="M44.504,557.939C45.551,555.845 47.475,554.557 49.557,554.557C51.638,554.557 53.563,555.845 54.61,557.939C78.338,605.396 178.546,805.811 202.41,853.539C203.462,855.644 203.468,858.245 202.425,860.357C201.382,862.469 199.449,863.771 197.356,863.771C149.764,863.771 -50.651,863.771 -98.243,863.771C-100.336,863.771 -102.269,862.469 -103.312,860.357C-104.355,858.245 -104.349,855.644 -103.296,853.539C-79.432,805.811 20.775,605.396 44.504,557.939Z" style="fill:rgb(238,28,37);"/>
    </g>
    <g transform="matrix(1.38363,0,0,1.11974,330.984,-355.667)">
        <path d="M40.334,566.279C42.309,562.328 45.799,559.924 49.557,559.924C53.315,559.924 56.804,562.328 58.78,566.279C86.414,621.548 168.411,785.541 197.307,843.335C199.374,847.467 199.468,852.657 197.553,856.9C195.639,861.142 192.016,863.771 188.085,863.771C131.539,863.771 -32.426,863.771 -88.971,863.771C-92.902,863.771 -96.525,861.142 -98.44,856.9C-100.354,852.657 -100.26,847.467 -98.194,843.335C-69.297,785.541 12.699,621.548 40.334,566.279Z" style="fill:white;"/>
    </g>
    <path d="M424.713,566.561L423.218,673.375L399.83,673.375L399.83,566.561L301.616,566.561L280.713,539.416L280.713,376.021L252.055,395.971L252.055,353.08L170.698,365.513L223.191,309.885L109.993,236.842L252.055,249.275L212.187,215.285L262.688,225.287C262.688,225.287 221.857,105.735 223.191,104.938C224.525,104.141 301.616,215.285 301.616,215.285L301.616,174.274L336.162,202.789L388.072,104.938L388.072,215.285L506.841,215.285C506.841,215.285 533.845,245.155 533.845,249.275C533.845,253.394 533.845,539.416 533.845,539.416L506.841,566.561L424.713,566.561Z" style="fill:black;stroke-width:1px;stroke:black;"/>
    <g transform="matrix(1.05533,0,0,1.05533,-14.8124,-11.3908)">
        <circle cx="316.435" cy="288.27" r="33.395" style="fill:white;"/>
    </g>
    <g transform="matrix(2.32969,0,0,2.39004,-328.821,-268.366)">
        <circle cx="316.435" cy="288.27" r="33.395" style="fill:white;"/>
    </g>
    <g transform="matrix(1.7967,-2.88708e-17,-2.70913e-17,1.79657,-161.787,-97.7982)">
        <circle cx="316.435" cy="288.27" r="33.395" style="fill:black;"/>
    </g>
    <g transform="matrix(0.511288,0,0,0.511288,216.294,250.623)">
        <circle cx="316.435" cy="288.27" r="33.395" style="fill:white;"/>
    </g>
</svg>
